<svg xmlns="http://www.w3.org/2000/svg" viewBox="0 0 64 64" width="64" height="64">
  <defs>
    <linearGradient id="bg-grad" x1="0%" y1="0%" x2="100%" y2="100%">
      <stop offset="0%" stop-color="#ffffff"/>
      <stop offset="100%" stop-color="#fdf2f4"/>
    </linearGradient>
    
    <linearGradient id="heart-grad" x1="10%" y1="10%" x2="90%" y2="90%">
      <stop offset="0%" stop-color="#ff3366"/>
      <stop offset="100%" stop-color="#cc0033"/>
    </linearGradient>
    
    <filter id="glow" x="-20%" y="-20%" width="140%" height="140%">
      <feDropShadow dx="0" dy="4" stdDeviation="4" flood-color="#cc0033" flood-opacity="0.3"/>
    </filter>
  </defs>

  <rect width="64" height="64" rx="14" fill="url(#bg-grad)"/>

  <path d="M32 50 C 32 50 14 35 14 22.5 C 14 15.6 19.6 10 26.5 10 C 30.4 10 32 12.5 32 12.5 C 32 12.5 33.6 10 37.5 10 C 44.4 10 50 15.6 50 22.5 C 50 35 32 50 32 50 Z" 
        fill="url(#heart-grad)" 
        filter="url(#glow)"/>

  <path d="M26.5 11 C 21.5 11 17 14.5 15.5 20 C 17 13 21 12 26.5 12 C 29.5 12 31.5 14 32 15 C 32.5 14 34.5 12 37.5 12 C 43 12 47 13 48.5 20 C 47 14.5 42.5 11 37.5 11 C 33.5 11 32 13.5 32 13.5 C 32 13.5 30.5 11 26.5 11 Z" 
        fill="#ffffff" 
        opacity="0.45"/>
</svg>
