<svg width="500" height="500" viewBox="0 0 500 500" fill="none" xmlns="http://www.w3.org/2000/svg">
<g clip-path="url(#clip0_84_172)">
<circle cx="250" cy="250" r="50" fill="#1E1E1E"/>
<path d="M235.644 5.85762C243.454 -1.95244 256.118 -1.95265 263.928 5.85762L347.714 89.6447C355.524 97.4552 355.525 110.119 347.714 117.929L291.809 173.833C285.943 179.699 277.113 181.09 269.067 179.071C262.874 177.517 256.392 176.692 249.717 176.692C243.072 176.692 236.617 177.51 230.449 179.051C222.41 181.059 213.593 179.664 207.734 173.805L151.858 117.929C144.047 110.118 144.047 97.4552 151.858 89.6447L235.644 5.85762Z" fill="#1E1E1E"/>
<path d="M264.356 494.142C256.546 501.952 243.882 501.953 236.072 494.142L152.286 410.355C144.476 402.545 144.475 389.881 152.286 382.071L208.191 326.167C214.057 320.301 222.887 318.91 230.933 320.929C237.126 322.483 243.608 323.308 250.283 323.308C256.928 323.308 263.383 322.49 269.551 320.949C277.59 318.941 286.407 320.336 292.266 326.195L348.142 382.071C355.953 389.882 355.953 402.545 348.142 410.355L264.356 494.142Z" fill="#1E1E1E"/>
<path d="M5.85762 264.356C-1.95243 256.546 -1.95265 243.882 5.85762 236.072L89.6447 152.286C97.4552 144.476 110.119 144.475 117.929 152.286L173.835 208.193C179.701 214.058 181.092 222.889 179.073 230.935C177.518 237.128 176.693 243.61 176.693 250.285C176.693 256.93 177.511 263.383 179.051 269.551C181.059 277.59 179.664 286.407 173.805 292.266L117.929 348.142C110.118 355.953 97.4552 355.953 89.6447 348.142L5.85762 264.356Z" fill="#1E1E1E"/>
<path d="M494.142 235.644C501.952 243.454 501.953 256.118 494.142 263.928L410.355 347.714C402.545 355.524 389.881 355.525 382.071 347.714L326.165 291.807C320.299 285.942 318.908 277.111 320.927 269.065C322.482 262.872 323.307 256.39 323.307 249.715C323.307 243.07 322.489 236.617 320.949 230.449C318.941 222.41 320.336 213.593 326.195 207.734L382.071 151.858C389.882 144.047 402.545 144.047 410.355 151.858L494.142 235.644Z" fill="#1E1E1E"/>
</g>
<defs>
<clipPath id="clip0_84_172">
<rect width="500" height="500" fill="white"/>
</clipPath>
</defs>
</svg>
